<svg width="40" height="40" viewBox="0 0 40 40" fill="none" xmlns="http://www.w3.org/2000/svg">
<path d="M4.99974 28.75V35H11.2497L29.6831 16.55L23.4331 10.3L4.99974 28.75ZM37.6831 30.6L30.5997 37.6833L21.9331 29.0166L24.8831 26.0666L26.5497 27.7333L30.6664 23.6L33.0331 25.9666L30.5997 28.3333L32.3664 30L34.7331 27.6666L37.6831 30.6ZM11.0164 18.05L2.31641 9.39998L9.39974 2.31665L12.3331 5.26665L8.21641 9.39998L9.99974 11.1666L14.0997 7.03332L16.4664 9.39998L14.0997 11.75L15.7664 13.4166L11.0164 18.05ZM34.5164 11.6666C35.1664 11.0167 35.1664 9.99998 34.5164 9.31665L30.6164 5.48332C29.9997 4.83332 28.9164 4.83332 28.2664 5.48332L25.1997 8.53332L31.4497 14.7833L34.5164 11.6666Z" fill="#FFFEFC"/>
</svg>
