<svg width="40" height="40" viewBox="0 0 40 40" fill="none" xmlns="http://www.w3.org/2000/svg">
<path d="M29.8335 28.9833C29.4002 27.6499 28.1502 26.6666 26.6668 26.6666H25.0002V21.6666C25.0002 21.2246 24.8246 20.8006 24.512 20.4881C24.1994 20.1755 23.7755 19.9999 23.3335 19.9999H13.3335V16.6666H16.6668C17.1089 16.6666 17.5328 16.491 17.8453 16.1784C18.1579 15.8659 18.3335 15.4419 18.3335 14.9999V11.6666H21.6668C22.5509 11.6666 23.3987 11.3154 24.0239 10.6903C24.649 10.0652 25.0002 9.21731 25.0002 8.33325V7.64992C29.8835 9.61659 33.3335 14.3999 33.3335 19.9999C33.3335 23.4666 32.0002 26.6166 29.8335 28.9833ZM18.3335 33.2166C11.7502 32.3999 6.66683 26.7999 6.66683 19.9999C6.66683 18.9666 6.80016 17.9666 7.01683 17.0166L15.0002 24.9999V26.6666C15.0002 27.5506 15.3514 28.3985 15.9765 29.0236C16.6016 29.6487 17.4494 29.9999 18.3335 29.9999V33.2166ZM20.0002 3.33325C17.8115 3.33325 15.6442 3.76435 13.6221 4.60193C11.6 5.4395 9.76269 6.66716 8.21505 8.21481C5.08944 11.3404 3.3335 15.5796 3.3335 19.9999C3.3335 24.4202 5.08944 28.6594 8.21505 31.785C9.76269 33.3327 11.6 34.5603 13.6221 35.3979C15.6442 36.2355 17.8115 36.6666 20.0002 36.6666C24.4204 36.6666 28.6597 34.9106 31.7853 31.785C34.9109 28.6594 36.6668 24.4202 36.6668 19.9999C36.6668 17.8112 36.2357 15.644 35.3982 13.6219C34.5606 11.5998 33.3329 9.76245 31.7853 8.21481C30.2376 6.66716 28.4003 5.4395 26.3782 4.60193C24.3561 3.76435 22.1889 3.33325 20.0002 3.33325Z" fill="#FFFEFC"/>
</svg>
