<svg width="40" height="40" viewBox="0 0 40 40" fill="none" xmlns="http://www.w3.org/2000/svg">
<path d="M21.4498 25.1166L17.2165 20.9333L17.2665 20.8833C20.1665 17.6499 22.2332 13.9333 23.4498 9.99992H28.3332V6.66659H16.6665V3.33325H13.3332V6.66659H1.6665V9.99992H20.2832C19.1665 13.1999 17.3998 16.2499 14.9998 18.9166C13.4498 17.1999 12.1665 15.3166 11.1498 13.3333H7.8165C9.03317 16.0499 10.6998 18.6166 12.7832 20.9333L4.29984 29.2999L6.6665 31.6666L14.9998 23.3333L20.1832 28.5166L21.4498 25.1166ZM30.8332 16.6666H27.4998L19.9998 36.6666H23.3332L25.1998 31.6666H33.1165L34.9998 36.6666H38.3332L30.8332 16.6666ZM26.4665 28.3333L29.1665 21.1166L31.8665 28.3333H26.4665Z" fill="#FFFEFC"/>
</svg>
