<svg width="25" height="25" viewBox="0 0 25 25" fill="none" xmlns="http://www.w3.org/2000/svg">
<path d="M8.36177 2.44336H16.7618C19.9618 2.44336 22.5618 5.04336 22.5618 8.24336V16.6434C22.5618 18.1816 21.9507 19.6569 20.863 20.7446C19.7753 21.8323 18.3 22.4434 16.7618 22.4434H8.36177C5.16177 22.4434 2.56177 19.8434 2.56177 16.6434V8.24336C2.56177 6.7051 3.17284 5.22985 4.26055 4.14214C5.34826 3.05443 6.82351 2.44336 8.36177 2.44336V2.44336ZM8.16177 4.44336C7.20699 4.44336 6.29131 4.82264 5.61618 5.49778C4.94105 6.17291 4.56177 7.08858 4.56177 8.04336V16.8434C4.56177 18.8334 6.17177 20.4434 8.16177 20.4434H16.9618C17.9165 20.4434 18.8322 20.0641 19.5074 19.3889C20.1825 18.7138 20.5618 17.7981 20.5618 16.8434V8.04336C20.5618 6.05336 18.9518 4.44336 16.9618 4.44336H8.16177ZM17.8118 5.94336C18.1433 5.94336 18.4612 6.07506 18.6957 6.30948C18.9301 6.5439 19.0618 6.86184 19.0618 7.19336C19.0618 7.52488 18.9301 7.84282 18.6957 8.07724C18.4612 8.31166 18.1433 8.44336 17.8118 8.44336C17.4802 8.44336 17.1623 8.31166 16.9279 8.07724C16.6935 7.84282 16.5618 7.52488 16.5618 7.19336C16.5618 6.86184 16.6935 6.5439 16.9279 6.30948C17.1623 6.07506 17.4802 5.94336 17.8118 5.94336ZM12.5618 7.44336C13.8879 7.44336 15.1596 7.97014 16.0973 8.90783C17.035 9.84551 17.5618 11.1173 17.5618 12.4434C17.5618 13.7694 17.035 15.0412 16.0973 15.9789C15.1596 16.9166 13.8879 17.4434 12.5618 17.4434C11.2357 17.4434 9.96392 16.9166 9.02623 15.9789C8.08855 15.0412 7.56177 13.7694 7.56177 12.4434C7.56177 11.1173 8.08855 9.84551 9.02623 8.90783C9.96392 7.97014 11.2357 7.44336 12.5618 7.44336V7.44336ZM12.5618 9.44336C11.7661 9.44336 11.0031 9.75943 10.4404 10.322C9.87784 10.8846 9.56177 11.6477 9.56177 12.4434C9.56177 13.239 9.87784 14.0021 10.4404 14.5647C11.0031 15.1273 11.7661 15.4434 12.5618 15.4434C13.3574 15.4434 14.1205 15.1273 14.6831 14.5647C15.2457 14.0021 15.5618 13.239 15.5618 12.4434C15.5618 11.6477 15.2457 10.8846 14.6831 10.322C14.1205 9.75943 13.3574 9.44336 12.5618 9.44336Z" fill="white"/>
</svg>
