<svg width="38" height="38" viewBox="0 0 38 38" fill="none" xmlns="http://www.w3.org/2000/svg">
<path d="M10.8303 0.5H26.5156C32.491 0.5 37.346 5.31 37.346 11.23V26.77C37.346 29.6158 36.2049 32.345 34.1738 34.3573C32.1428 36.3695 29.388 37.5 26.5156 37.5H10.8303C4.85498 37.5 0 32.69 0 26.77V11.23C0 8.38423 1.14105 5.65501 3.17213 3.64274C5.20321 1.63048 7.95795 0.5 10.8303 0.5ZM10.4569 4.2C8.67402 4.2 6.96418 4.90168 5.70351 6.15067C4.44284 7.39966 3.7346 9.09366 3.7346 10.86V27.14C3.7346 30.8215 6.74095 33.8 10.4569 33.8H26.8891C28.672 33.8 30.3818 33.0983 31.6425 31.8493C32.9031 30.6003 33.6114 28.9063 33.6114 27.14V10.86C33.6114 7.1785 30.605 4.2 26.8891 4.2H10.4569ZM28.4763 6.975C29.0954 6.975 29.6891 7.21864 30.1268 7.65232C30.5645 8.08599 30.8104 8.67419 30.8104 9.2875C30.8104 9.90081 30.5645 10.489 30.1268 10.9227C29.6891 11.3564 29.0954 11.6 28.4763 11.6C27.8573 11.6 27.2636 11.3564 26.8258 10.9227C26.3881 10.489 26.1422 9.90081 26.1422 9.2875C26.1422 8.67419 26.3881 8.08599 26.8258 7.65232C27.2636 7.21864 27.8573 6.975 28.4763 6.975ZM18.673 9.75C21.1492 9.75 23.524 10.7246 25.2749 12.4593C27.0258 14.194 28.0095 16.5467 28.0095 19C28.0095 21.4533 27.0258 23.806 25.2749 25.5407C23.524 27.2754 21.1492 28.25 18.673 28.25C16.1968 28.25 13.822 27.2754 12.0711 25.5407C10.3202 23.806 9.33649 21.4533 9.33649 19C9.33649 16.5467 10.3202 14.194 12.0711 12.4593C13.822 10.7246 16.1968 9.75 18.673 9.75ZM18.673 13.45C17.1873 13.45 15.7624 14.0347 14.7118 15.0756C13.6613 16.1164 13.0711 17.528 13.0711 19C13.0711 20.472 13.6613 21.8836 14.7118 22.9244C15.7624 23.9653 17.1873 24.55 18.673 24.55C20.1587 24.55 21.5836 23.9653 22.6341 22.9244C23.6847 21.8836 24.2749 20.472 24.2749 19C24.2749 17.528 23.6847 16.1164 22.6341 15.0756C21.5836 14.0347 20.1587 13.45 18.673 13.45Z" fill="#1A1D19"/>
</svg>
