<svg width="45" height="44" viewBox="0 0 45 44" fill="none" xmlns="http://www.w3.org/2000/svg">
<path d="M35.7473 5.5C36.7288 5.5 37.6702 5.88631 38.3642 6.57394C39.0583 7.26157 39.4482 8.19421 39.4482 9.16667V34.8333C39.4482 35.8058 39.0583 36.7384 38.3642 37.4261C37.6702 38.1137 36.7288 38.5 35.7473 38.5H9.8406C8.85905 38.5 7.9177 38.1137 7.22363 37.4261C6.52957 36.7384 6.13965 35.8058 6.13965 34.8333V9.16667C6.13965 8.19421 6.52957 7.26157 7.22363 6.57394C7.9177 5.88631 8.85905 5.5 9.8406 5.5H35.7473ZM34.822 33.9167V24.2C34.822 22.6149 34.1865 21.0947 33.0551 19.9739C31.9238 18.853 30.3894 18.2233 28.7895 18.2233C27.2166 18.2233 25.3846 19.1767 24.4964 20.6067V18.5717H19.3335V33.9167H24.4964V24.8783C24.4964 23.4667 25.6437 22.3117 27.0685 22.3117C27.7556 22.3117 28.4146 22.5821 28.9004 23.0634C29.3863 23.5448 29.6592 24.1976 29.6592 24.8783V33.9167H34.822ZM13.3195 15.6933C14.144 15.6933 14.9347 15.3688 15.5178 14.7912C16.1008 14.2136 16.4283 13.4302 16.4283 12.6133C16.4283 10.9083 15.0404 9.515 13.3195 9.515C12.4901 9.515 11.6946 9.84143 11.1082 10.4225C10.5217 11.0035 10.1922 11.7916 10.1922 12.6133C10.1922 14.3183 11.5986 15.6933 13.3195 15.6933ZM15.8917 33.9167V18.5717H10.7658V33.9167H15.8917Z" fill="#1A1D19"/>
</svg>
