<svg width="40" height="40" viewBox="0 0 40 40" fill="none" xmlns="http://www.w3.org/2000/svg">
<path d="M33.3335 9.99992C34.3002 9.99992 35.0835 10.3333 35.7002 10.9833C36.3335 11.6666 36.6668 12.4166 36.6668 13.3333V31.6666C36.6668 32.5833 36.3335 33.3333 35.7002 34.0166C35.0835 34.6666 34.3002 34.9999 33.3335 34.9999H6.66683C5.70016 34.9999 4.91683 34.6666 4.30016 34.0166C3.66683 33.3333 3.3335 32.5833 3.3335 31.6666V13.3333C3.3335 12.4166 3.66683 11.6666 4.30016 10.9833C4.91683 10.3333 5.70016 9.99992 6.66683 9.99992H13.3335V6.66659C13.3335 5.69992 13.6668 4.91659 14.3002 4.29992C14.9168 3.66659 15.7002 3.33325 16.6668 3.33325H23.3335C24.3002 3.33325 25.0835 3.66659 25.7002 4.29992C26.3335 4.91659 26.6668 5.69992 26.6668 6.66659V9.99992H33.3335ZM6.66683 13.3333V31.6666H33.3335V13.3333H6.66683ZM23.3335 9.99992V6.66659H16.6668V9.99992H23.3335Z" fill="#FFFEFC"/>
</svg>
